<svg height="100" viewBox="0 0 650 650" width="100" xmlns="http://www.w3.org/2000/svg" xmlns:xlink="http://www.w3.org/1999/xlink"><image height="103.5" overflow="visible" width="184.5" x="-358.375" xlink:href="C:\Users\OldManWillow\Pictures\PARTES ALQUIMIA\b320109630e443f942de8be64d14632c.png" y="-1221.04"/><image height="59.25" overflow="visible" width="129.75" x="-333.139" xlink:href="C:\Users\OldManWillow\Pictures\PARTES ALQUIMIA\9a0a7643c3eb2beb8894f36396b7bed4.png" y="-1199.025"/><path d="M443.832 292.186c-5.6-3.4-11.5-6.3-17.5-8.5s-12.1-4.1-18.2-5.1c-24.5-4.6-49.8-1-70.3 11.1-5.1 3-9.9 6.5-14.2 10.3-4.2 4-8.2 8.2-11.4 12.8-.9 1.2-1.8 2.4-2.6 3.7-14-11.2-28.2-22.8-42.4-34.6-.5-23.5-2.1-47.3-7.3-72-3.5-16.2-8.6-33-17.2-48.5-4.2-7.8-9.3-15-14.6-21.8-2.7-3.4-5.4-6.4-8.4-9.8l-4-4.2-4.5-4.5c-11.7-11.5-24.8-21.7-39.3-30.1-14.4-8.4-30.1-15.2-47.6-18.1-4.4-.7-8.9-1.1-13.6-1s-9.7.6-14.9 2.3c-2.6.8-5.3 2.1-8 3.9-1.3.9-2.6 1.9-3.8 3.1l-1.2 1.2-.5.5c-.5.5-1.5 2-1.9 2.6-2.1 3.3-3 6.9-3.3 10.1s-.1 6 .3 8.6c1.9 10.2 6.1 17.5 10.3 24.7 4.3 7 9 13.4 13.8 19.5 19.7 24.2 41.3 45.4 63.2 65.6 19.2 17.8 38.7 34.7 58.2 51.1.6 13.1.9 26.3 1.3 39.5.2 7.6.3 14.9.6 22.7.3 8 .8 16.1 1.8 24.1 1.9 16 5.4 31.8 10.5 47 5 15.3 11.8 29.9 20.3 43.4s18.8 25.9 30.9 36.2c2.9 2.7 6.2 5 9.3 7.4 3.3 2.2 6.5 4.5 10 6.4 6.8 4.1 14.1 7.2 21.4 9.7 14.8 5.1 30.6 6.5 45.5 4.7l5.6-.8 5.5-1.2c3.6-.7 7.4-2 10.9-3l4.8-1.8 2.6-1 2.4-1.1 4.9-2.2 4.8-2.4c12.6-6.5 24.1-14.7 34.1-24.4 6.9-6.7 13-14.1 18.3-21.9 5.4 3.8 10.7 7.5 15.8 11.3 9.3 6.7 18.2 13.5 26.7 20.4 8.4 6.9 16.5 13.8 23.7 21.2 3.6 3.7 6.9 7.5 10 11.4.7.9 1.6 2 2.2 2.8l2.1 3.1c1.2 2 2.3 3.9 3.3 6.1 4.1 8.3 6.1 17.4 6 25.9-.2 8.6-2.5 16.7-6.4 23.6l-1.6 2.5-.4.6c0 .1-.2.3-.1.2l-.2.3-.9 1.3c-1.2 1.6-2.3 2.9-3.6 4.4-2.6 2.8-5.4 5.3-8.3 7.2-3 2-6.1 3.6-9.2 4.8-3.2 1.1-6.4 1.8-9.4 2-6.2.4-11.9-.8-16.5-3.2-2.3-1.2-4.4-2.7-6.2-4.3-.9-.8-1.8-1.7-2.6-2.5l-1.2-1.4c.4.3 0 0 0 0l-.2-.2-.4-.4-.8-.8c-1-1.4-2.5-3.4-3.3-5.2-.9-1.8-1.6-3.6-2.2-5.3-.6-2.2-.9-4.2-.9-6 5.9-1 11.5-3.8 16-8.5 11.3-11.6 11-30.2-.7-41.5-11.6-11.3-30.4-11.5-41.9-.1-8.2 8.1-14.1 18.9-13.5 34.7.5 12.6 5 26.7 13.7 37.5 2.1 2.8 4.6 5.4 7.2 7.8 2.8 2.5 5.4 4.6 9 7 5.9 3.7 13.7 7 21.7 8.5 8.2 1.6 17 1.4 25.4-1 4.2-1.1 8.3-2.7 12.2-4.8 3.9-2 7.6-4.5 11.1-7.3 3.5-2.9 6.7-6.1 9.6-9.7 1.4-1.8 2.8-3.8 4.1-5.7l.8-1.4.5-.8.4-.8 1.7-3.1c2-4.3 3.7-8.9 4.8-13.7 1-4.8 1.5-9.8 1.4-14.8-.4-10.1-3-20.3-8-29.6-1.2-2.3-2.7-4.6-4.1-6.9l-2.2-3.1c-.9-1.2-1.7-2.1-2.5-3.2-3.3-4.1-6.9-7.9-10.7-11.7-15.1-15-32.8-28.4-51.2-42.3-5.3-3.9-10.7-7.9-16.1-11.9 7.8-13.1 13.5-27.4 16.2-42.4 2.4-13.3 2.6-27.1 0-40.4-1.2-6.7-3.3-13.2-5.9-19.5-1.3-3.2-2.8-6.2-4.4-9.2-.7-1.5-1.8-3.1-2.7-4.6-1-1.5-2-3.2-2.7-4.2l-2.4-3.6-3.6-4.4c-2.2-2.6-4.6-5.1-7.1-7.4-5.1-4.5-10.4-8.5-16.1-11.9zm-344.3-194.6c.1-.1 0 .1-.1.2.1-.2.1-.3.1-.2zm-1.3-.7s-.1.1 0 0zm78.2 104.6c-10.5-10.2-20.8-20.7-30.8-31.5s-19.6-22-28.1-33.8c-4.2-5.9-8.2-11.9-11.6-17.9-3.3-6-6.1-12.4-6.6-17.3-.2-1.6 0-2.7.1-3.2l.4-.4c-.5.6-.1.1-.1.2.1-.1.4-.2.6-.4.6-.3 1.3-.6 2.4-.9 4.2-1.1 10.6-.6 16.7 1.1 12.4 3.4 24.6 10.6 35.6 19 11 8.5 21.1 18.6 30.4 29.2l3.3 3.9 3.6 4.4c1.9 2.5 4.1 5.4 6 8.1 3.8 5.5 7.1 11.1 9.8 17 5.5 11.7 8.6 24.7 10.7 38.4 1.2 8.3 2 16.8 2.7 25.4-15.2-13.3-30.3-27-45.1-41.3zm264.7 257.5c-4.5 4.3-9.3 8.3-14.6 11.9-5.2 3.6-10.8 6.7-16.6 9.4l-4.4 2-4.5 1.7-2.3.9-2.2.7-4.9 1.5c-5.9 1.4-12.1 2.6-18.5 2.7-6.3.2-12.6-.2-18.8-1.6-6.1-1.3-12.2-3.2-17.9-6-5.7-2.7-11.1-6-16.1-10-2.6-1.8-4.9-4.1-7.3-6.2-2.2-2.3-4.6-4.4-6.7-7-17.2-19.4-27.8-44.6-33.6-70.9-2.9-13.2-4.6-26.8-5.3-40.6-.4-6.9-.5-13.8-.4-20.8l.3-22.4v-2.9c11.9 9.5 23.8 18.7 35.6 27.8-.2.5-.3.9-.5 1.4l-1.4 3.6c-.7 2.4-1.5 4.7-2.1 7.1-4.8 19-3.4 37.7 2.3 52.5 5.5 14.9 14.3 26.1 23.4 33.7s18.6 11.8 26.5 13.2c7.9 1.6 14.1.4 17.8-.7.9-.3 1.8-.6 2.5-.8l1.6-.8c.9-.4 1.3-.7 1.3-.7h-1.5c-1 0-2.5 0-4.2-.3-3.6-.5-8.8-1.9-14.3-5.5-5.5-3.5-11.5-9-16.4-16.7-5-7.6-9-17.4-10.6-28.4-1.5-11-.3-23.1 4.6-35 .1-.2.1-.3.2-.5 10.1 7.4 20.1 14.7 30.1 21.8 21.5 15.3 42.6 29.8 63.1 43.8 10.2 7 20.3 13.8 30.1 20.6.6.4 1.1.8 1.7 1.2-4.2 7.2-9.6 14.2-16 20.3zm8.3-120.1c13 13 22 34 20.9 56.6-.4 12.1-3.6 24.5-9.3 36.1-29.1-21.5-59.9-44.1-91.5-68.2-10.2-7.8-20.5-15.8-30.8-23.9 0-.1.1-.1.1-.2 1-1.2 1.8-2.5 2.9-3.6 4-4.8 9.2-8.7 15.2-11.9 12.1-6.2 28.2-9 45-7 8.4 1 16.9 3.2 25.1 6.8 4.1 1.8 8 3.9 11.7 6.4 1.9 1.2 3.6 2.6 5.4 4l1.3 1.1.7.6.3.3c.4.5-.2-.3 0-.1z" fill="#bc2a6b"/><path d="M388.547 181.578l82.872 82.872-262.9 262.9-82.871-82.872z" fill="#fff"/><path d="M102.232 99.686c0-.1-.1 0-.1.2 0-.1.1-.2.1-.2z" fill="none"/><path d="M210.832 181.186c-2.7-5.9-6-11.5-9.8-17-1.9-2.7-4.1-5.5-6-8.1l-3.6-4.4-3.3-3.9c-9.3-10.6-19.4-20.7-30.4-29.2-11-8.4-23.2-15.6-35.6-19-6.2-1.6-12.6-2.2-16.8-1.1-1 .2-1.8.6-2.4.9-.3.1-.5.3-.6.4.1-.1-.4.3.1-.2l-.4.4c-.2.5-.4 1.5-.1 3.2.6 4.8 3.3 11.3 6.6 17.3 3.3 6.1 7.3 12.1 11.6 17.9 8.5 11.8 18.1 23 28.1 33.8s20.3 21.3 30.8 31.5c14.8 14.3 30 28 45.2 41.4-.7-8.6-1.5-17.1-2.7-25.4-2.1-13.8-5.2-26.8-10.7-38.5zm217.3 237.7c-20.5-14-41.6-28.5-63.1-43.8-10-7.1-20-14.3-30.1-21.8-.1.2-.2.3-.2.5-4.9 11.9-6.1 24-4.6 35 1.6 11 5.5 20.8 10.6 28.4 5 7.7 10.9 13.2 16.4 16.7s10.7 4.9 14.3 5.5c1.8.3 3.2.3 4.2.3h1.5s-.4.2-1.3.7l-1.6.8c-.7.2-1.5.5-2.5.8-3.8 1.2-9.9 2.3-17.8.7-7.9-1.4-17.4-5.6-26.5-13.2-9-7.6-17.9-18.8-23.4-33.7-5.6-14.8-7.1-33.5-2.3-52.5.6-2.4 1.4-4.7 2.1-7.1l1.4-3.6c.2-.5.3-.9.5-1.4-11.8-9-23.7-18.3-35.6-27.8v2.9l-.3 22.4c-.2 7 0 13.9.4 20.8.7 13.8 2.4 27.4 5.3 40.6 5.9 26.3 16.5 51.6 33.6 70.9 2.1 2.5 4.4 4.6 6.7 7 2.4 2.1 4.7 4.3 7.3 6.2 5 4 10.4 7.3 16.1 10 5.7 2.8 11.7 4.6 17.9 6 6.1 1.4 12.5 1.8 18.8 1.6 6.3-.1 12.6-1.3 18.5-2.7l4.9-1.5 2.2-.7 2.3-.9 4.5-1.7 4.4-2c5.8-2.7 11.4-5.8 16.6-9.4 5.2-3.5 10.1-7.5 14.6-11.9 6.4-6.1 11.8-13.1 16.2-20.5-.6-.4-1.1-.8-1.7-1.2-10-6.6-20-13.4-30.3-20.4zm21-80.9l-.3-.3-.7-.6-1.3-1.1c-1.8-1.4-3.5-2.8-5.4-4-3.7-2.5-7.7-4.6-11.7-6.4-8.1-3.6-16.7-5.7-25.1-6.8-16.8-2-32.9.8-45 7-6 3.2-11.2 7.1-15.2 11.9-1.1 1.1-1.9 2.4-2.9 3.6 0 .1-.1.1-.1.2 10.4 8.1 20.6 16.1 30.8 23.9 31.6 24.2 62.4 46.8 91.5 68.2 5.7-11.6 8.9-24 9.3-36.1 1.1-22.6-7.9-43.6-20.9-56.6l-3-2.9c-.2-.3.4.5 0 0z" fill="none"/><g fill="#bc2a6b"><path d="M425.132 239.986l-208.7 208.7-13.4-13.4 208.7-208.7zm-245.2 216.1c-1.7-2.9-4.8-4.6-8.1-4.6h-57c-3.3 0-6.4 1.7-8.1 4.6l-28.5 47.4c-1.8 3-1.8 6.8 0 9.8l28.5 47.4c1.7 2.9 4.8 4.6 8.1 4.6h56.9c3.3 0 6.4-1.7 8.1-4.6l28.5-47.4c1.8-3 1.8-6.8 0-9.8zm-13.5 90.2h-46.2l-22.8-37.9 22.8-37.9h46.2l22.8 37.9z"/><path d="M318.232 422.786l144.7-144.5c7.3 1.5 14.8 2.3 22.2 2.3 62.7.2 113.6-50.4 113.8-113.1 0-9.5-1.1-19-3.5-28.3-1.3-5.1-6.4-8.2-11.5-6.9-1.7.4-3.2 1.3-4.4 2.5l-59.1 59-46.9-15.6-15.6-46.8 59.1-59.1c3.7-3.7 3.7-9.7 0-13.4-1.2-1.2-2.8-2.1-4.4-2.5-60.8-15.4-122.5 21.4-137.9 82.1-2.3 9.2-3.5 18.7-3.5 28.2 0 7.5.8 14.9 2.3 22.2l-207.7 207.8c-7.3-1.5-14.8-2.3-22.2-2.3-62.9 0-113.8 51-113.8 113.8 0 62.9 51 113.8 113.8 113.8 62.9 0 113.8-51 113.8-113.8 0-7.5-.8-14.9-2.3-22.2l49.7-49.7zm-82.7 62.5c13 51.1-17.9 103.1-69 116.1s-103.1-17.9-116.1-69 17.9-103.1 69-116.1c15.5-3.9 31.7-3.9 47.1 0 3.2.8 6.6-.2 9-2.5l215.2-215.2c2.4-2.4 3.3-5.8 2.5-9-12.9-50.5 17.5-101.9 68.1-114.9 9.5-2.4 19.4-3.4 29.3-2.8l-50 50.1c-2.5 2.5-3.4 6.3-2.3 9.7l19 56.9c.9 2.8 3.2 5.1 6 6l56.9 19c3.4 1.1 7.2.2 9.7-2.3l50-50c.1 1.8.2 3.6.2 5.4.3 52.1-41.8 94.6-93.9 94.9-8.1 0-16.1-1-23.9-3-3.2-.8-6.7.1-9 2.5h.1l-215.4 215.2c-2.4 2.4-3.3 5.8-2.5 9z"/><path d="M293.932 425.986v-.3l-3.1-.1s1.1.3 3 .8c.1-.1.1-.2.1-.4z"/></g></svg>