<svg height="100" viewBox="0 0 580 580" width="100" xmlns="http://www.w3.org/2000/svg" xmlns:xlink="http://www.w3.org/1999/xlink"><g fill="#bc2a6b" transform="translate(48.162712 53.105085)"><path d="m498.9 245.4c-8.2-4.7-17.9-4.6-26 .2l-60 35.3c-2 1.2-3.5 3-4.3 5.2h-20.6v-22c0-18.7-15.3-34-34-34h-12.4c31.5-21.2 52.3-57.2 52.3-98 0-65.1-52.9-118-118-118-55.7 0-102.6 38.8-114.8 90.9-16.5-21.3-42.2-35-71.1-35-49.6 0-90 40.4-90 90 0 28.3 13.1 53.5 33.5 70-18.5.3-33.5 15.4-33.5 34v200c0 18.7 15.3 34 34 34h115c5.5 0 10-4.5 10-10s-4.5-10-10-10h-115c-7.7 0-14-6.3-14-14v-200c0-7.7 6.3-14 14-14h320c7.7 0 14 6.3 14 14v200c0 7.7-6.3 14-14 14h-115c-5.5 0-10 4.5-10 10s4.5 10 10 10h115c18.7 0 34-15.3 34-34v-22h20.6c.8 2.1 2.3 4 4.3 5.2l60 35.3c4.1 2.4 8.6 3.6 13.2 3.6 4.4 0 8.8-1.2 12.9-3.5 8.2-4.7 13.1-13.1 13.1-22.5v-192.2c-.1-9.4-5-17.9-13.2-22.5zm-223-211.4c54 0 98 44 98 98s-44 98-98 98-98-44-98-98 44-98 98-98zm-255.9 126c0-38.6 31.4-70 70-70s70 31.4 70 70-31.4 70-70 70-70-31.4-70-70zm126.5 70c12.3-10 22-23.2 27.7-38.3 9 15.3 21.4 28.4 36.1 38.3zm241.5 76h20v116h-20zm104 154.1c0 3.1-2.1 4.6-3 5.2-.9.5-3.3 1.5-6 0l-55-32.4v-.9-136-.8l55-32.4c2.7-1.6 5.1-.6 6 0s3 2 3 5.2z"/><path d="m306 346c18.7 0 34-15.3 34-34s-15.3-34-34-34-34 15.3-34 34 15.3 34 34 34zm0-48c7.7 0 14 6.3 14 14s-6.3 14-14 14-14-6.3-14-14 6.3-14 14-14z"/><path d="m194 478c-2.6 0-5.2 1.1-7.1 2.9s-2.9 4.4-2.9 7.1 1.1 5.2 2.9 7.1 4.4 2.9 7.1 2.9 5.2-1.1 7.1-2.9c1.9-1.9 2.9-4.4 2.9-7.1 0-2.6-1.1-5.2-2.9-7.1-1.9-1.8-4.5-2.9-7.1-2.9z"/><path d="m275.9 210c43 0 78-35 78-78s-35-78-78-78-78 35-78 78 35 78 78 78zm0-136c32 0 58 26 58 58s-26 58-58 58-58-26-58-58 26.1-58 58-58z"/><path d="m275.9 114.7c2.6 0 5.2-1.1 7.1-2.9s2.9-4.4 2.9-7.1c0-2.6-1.1-5.2-2.9-7.1-1.9-1.9-4.4-2.9-7.1-2.9-2.6 0-5.2 1.1-7.1 2.9s-2.9 4.4-2.9 7.1c0 2.6 1.1 5.2 2.9 7.1 1.9 1.8 4.5 2.9 7.1 2.9z"/><path d="m275.9 169.3c2.6 0 5.2-1.1 7.1-2.9 1.9-1.9 2.9-4.4 2.9-7.1s-1.1-5.2-2.9-7.1-4.4-2.9-7.1-2.9c-2.6 0-5.2 1.1-7.1 2.9-1.9 1.9-2.9 4.4-2.9 7.1 0 2.6 1.1 5.2 2.9 7.1 1.9 1.9 4.5 2.9 7.1 2.9z"/><path d="m303.3 142c2.6 0 5.2-1.1 7.1-2.9 1.9-1.9 2.9-4.4 2.9-7.1s-1.1-5.2-2.9-7.1c-1.9-1.9-4.4-2.9-7.1-2.9-2.6 0-5.2 1.1-7.1 2.9-1.9 1.9-2.9 4.4-2.9 7.1s1.1 5.2 2.9 7.1c1.9 1.8 4.4 2.9 7.1 2.9z"/><path d="m248.6 142c2.6 0 5.2-1.1 7.1-2.9s2.9-4.4 2.9-7.1-1.1-5.2-2.9-7.1c-1.9-1.9-4.4-2.9-7.1-2.9-2.6 0-5.2 1.1-7.1 2.9-1.9 1.9-2.9 4.4-2.9 7.1s1.1 5.2 2.9 7.1c1.9 1.8 4.5 2.9 7.1 2.9z"/><path d="m90 206c25.4 0 46-20.6 46-46s-20.6-46-46-46-46 20.6-46 46 20.6 46 46 46zm0-72c14.3 0 26 11.7 26 26s-11.7 26-26 26-26-11.7-26-26 11.7-26 26-26z"/><path d="m248 440v-96c0-5.5-4.5-10-10-10h-174c-5.5 0-10 4.5-10 10v96c0 5.5 4.5 10 10 10h174c5.5 0 10-4.5 10-10zm-20-10h-154v-76h154z"/><path d="m272 432c0 5.5 4.5 10 10 10h48c5.5 0 10-4.5 10-10v-48c0-5.5-4.5-10-10-10h-48c-5.5 0-10 4.5-10 10zm20-38h28v28h-28z"/></g><image height="59.25" overflow="visible" width="129.75" x="-285" xlink:href="C:\Users\OldManWillow\Pictures\PARTES ALQUIMIA\9a0a7643c3eb2beb8894f36396b7bed4.png" y="-1868.9047"/></svg>