<svg height="100" viewBox="0 0 570 570" width="100" xmlns="http://www.w3.org/2000/svg" xmlns:xlink="http://www.w3.org/1999/xlink"><g fill="#bc2a6b" transform="translate(45.517955 46.988581)"><path d="m184 328h-32v-32c0-4.4-3.6-8-8-8h-32c-4.4 0-8 3.6-8 8v32h-32c-4.4 0-8 3.6-8 8v32c0 4.4 3.6 8 8 8h32v32c0 4.4 3.6 8 8 8h32c4.4 0 8-3.6 8-8v-32h32c4.4 0 8-3.6 8-8v-32c0-4.4-3.5-8-8-8zm-8 32h-32c-4.4 0-8 3.6-8 8v32h-16v-32c0-4.4-3.6-8-8-8h-32v-16h32c4.4 0 8-3.6 8-8v-32h16v32c0 4.4 3.6 8 8 8h32z"/><path d="m479.2 337.4c-6.1-55.1-57.9-106.7-113.1-112.6-4.7-.5-9.4-.8-14.1-.8h-88v-32h-16v-16c0-17.7-14.3-32-32-32h-40c-8.8 0-16-7.2-16-16s7.2-16 16-16h128c17.7 0 32-14.3 32-32s-14.3-32-32-32h-40c-8.8 0-16-7.2-16-16v-32h-16v32c0 17.7 14.3 32 32 32h40c8.8 0 16 7.2 16 16s-7.2 16-16 16h-128c-17.7 0-32 14.3-32 32s14.3 32 32 32h40c8.8 0 16 7.2 16 16v16h-16v32h-88c-4.7 0-9.4.3-14.1.8-55.2 6-106.9 57.5-113.1 112.7-8 70.2 42.4 133.7 112.6 141.7 28.6 3.3 57.5-3.2 81.9-18.3 10.5-6.9 22.6-11.2 35.1-12.4 6.2-.5 12.4-.5 18.6-.1 12.7 1.2 25 5.5 35.7 12.5 60.1 37.2 139 18.5 176.2-41.6 15.2-24.5 21.6-53.3 18.3-81.9zm-247.2-129.4h16v16h-16zm203.5 218.7c-36.2 40.5-96.1 49.1-142.3 20.6-12.9-8.4-27.6-13.5-43-14.9-3.4-.2-6.8-.4-10.2-.4-3.6 0-7.2.2-10.8.4-15.1 1.4-29.6 6.5-42.3 14.8-52.6 32.5-121.6 16.3-154.2-36.3-13.2-21.4-18.9-46.7-16-71.7 5.3-47.4 51.5-93.4 98.9-98.5 4.1-.5 8.3-.7 12.4-.7h224c4.1 0 8.3.2 12.4.7 47.4 5.1 93.6 51.1 98.9 98.5 3.8 31.8-6.3 63.7-27.8 87.5z"/><path d="m352 272c-17.7 0-32 14.3-32 32s14.3 32 32 32 32-14.3 32-32-14.3-32-32-32zm0 48c-8.8 0-16-7.2-16-16s7.2-16 16-16 16 7.2 16 16-7.1 16-16 16z"/><path d="m352 368c-17.7 0-32 14.3-32 32s14.3 32 32 32 32-14.3 32-32-14.3-32-32-32zm0 48c-8.8 0-16-7.2-16-16s7.2-16 16-16 16 7.2 16 16-7.1 16-16 16z"/><path d="m296 320c-17.7 0-32 14.3-32 32s14.3 32 32 32 32-14.3 32-32-14.3-32-32-32zm0 48c-8.8 0-16-7.2-16-16s7.2-16 16-16 16 7.2 16 16-7.1 16-16 16z"/><path d="m408 320c-17.7 0-32 14.3-32 32s14.3 32 32 32 32-14.3 32-32-14.3-32-32-32zm0 48c-8.8 0-16-7.2-16-16s7.2-16 16-16 16 7.2 16 16-7.1 16-16 16z"/></g><image height="59.25" overflow="visible" width="129.75" x="-297" xlink:href="C:\Users\OldManWillow\Pictures\PARTES ALQUIMIA\9a0a7643c3eb2beb8894f36396b7bed4.png" y="-2148.3145"/></svg>