<svg height="100" viewBox="0 0 270 270" width="100" xmlns="http://www.w3.org/2000/svg"><path d="m189.29593 10.533841h-104.400003c-10 0-18 8.1-18 18.1v211.900009c0 10 8.1 18 18 18h104.400003c10 0 18-8.1 18-18v-211.900009c0-10-8.1-18.1-18-18.1zm-77.9 11h51.5c1.3 0 2.3 1.9 2.3 4.3s-1 4.4-2.3 4.4h-51.5c-1.3 0-2.3-2-2.3-4.4-.1-2.4.9-4.3 2.3-4.3zm25.7 219.200009c-6.4 0-11.5-5.2-11.5-11.5 0-6.4 5.2-11.5 11.5-11.5s11.5 5.2 11.5 11.5-5.1 11.5-11.5 11.5zm56.7-39.5h-113.400003v-160.200009h113.400003z" fill="#bc2a6b"/></svg>