<svg height="100" viewBox="0 0 450 450" width="100" xmlns="http://www.w3.org/2000/svg" xmlns:xlink="http://www.w3.org/1999/xlink"><g fill="#bc2a6b"><path d="M223.043 157.759c-32.4-21.7-36.9-53.6-36.9-53.9v-.4h-9.8l.8 165.1c-7.5-7.2-18.6-11.7-31-11.7-22.7 0-41.2 15.4-41.2 34.3 0 19 18.4 34 41.2 34 22.5 0 40.8-14 41.2-34.2h.6v.1l-.9-154c5.3 8.3 14.5 18.2 31.4 30.9 33.5 25.1 9.3 51.2 9.3 51.2 21.3-10.3 26.6-40.4-4.7-61.4z"/><path d="M403.743 262.559c-5.5 0-10 4.5-10 10v88.7c0 16.5-13.4 29.9-30 30h-280.2c-16.5 0-29.9-13.4-30-30v-260.3c0-16.5 13.4-29.9 30-30h88.7c5.5 0 10-4.5 10-10s-4.5-10-10-10h-88.7c-27.5.1-49.9 22.4-49.9 50v260.3c0 27.6 22.4 49.9 49.9 49.9h280.2c27.6 0 49.9-22.4 49.9-49.9v-88.7c.1-5.5-4.4-10-9.9-10z"/><path d="M409.343 93.959c-14-14-36.6-14-50.6 0l-141.7 141.8c-1 1-1.7 2.2-2 3.5l-18.6 67.3c-.8 2.8 0 5.7 2 7.7s5 2.8 7.7 2l67.3-18.6a9.4 9.4 0 003.5-2l141.7-141.8c13.9-14 13.9-36.6 0-50.6zm-175 146.9l116-116 37.4 37.4-116 116zm-7.5 15l29.9 29.9-41.4 11.5zm180.6-113.2l-8.4 8.4-37.5-37.4 8.4-8.4c7.8-7.8 20.3-7.8 28.1 0l9.3 9.3c7.8 7.7 7.8 20.3.1 28.1z"/></g><image height="59.25" overflow="visible" width="129.75" x="-388.356" xlink:href="C:\Users\OldManWillow\Pictures\PARTES ALQUIMIA\9a0a7643c3eb2beb8894f36396b7bed4.png" y="-1525.42"/></svg>