<?xml version="1.0" encoding="UTF-8" standalone="no"?>
<!-- Generator: Adobe Illustrator 23.0.1, SVG Export Plug-In . SVG Version: 6.00 Build 0)  -->

<svg
   xmlns:dc="http://purl.org/dc/elements/1.1/"
   xmlns:cc="http://creativecommons.org/ns#"
   xmlns:rdf="http://www.w3.org/1999/02/22-rdf-syntax-ns#"
   xmlns:svg="http://www.w3.org/2000/svg"
   xmlns="http://www.w3.org/2000/svg"
   xmlns:sodipodi="http://sodipodi.sourceforge.net/DTD/sodipodi-0.dtd"
   xmlns:inkscape="http://www.inkscape.org/namespaces/inkscape"
   version="1.1"
   id="Capa_1"
   x="0px"
   y="0px"
   viewBox="0 0 194.28 194.28"
   xml:space="preserve"
   sodipodi:docname="cine.svg"
   width="194.28"
   height="194.28003"
   inkscape:version="0.92.4 (fd57863, 2020-04-02)"><metadata
   id="metadata90"><rdf:RDF><cc:Work
       rdf:about=""><dc:format>image/svg+xml</dc:format><dc:type
         rdf:resource="http://purl.org/dc/dcmitype/StillImage" /><dc:title></dc:title></cc:Work></rdf:RDF></metadata><defs
   id="defs88" /><sodipodi:namedview
   pagecolor="#ffffff"
   bordercolor="#666666"
   borderopacity="1"
   objecttolerance="10"
   gridtolerance="10"
   guidetolerance="10"
   inkscape:pageopacity="0"
   inkscape:pageshadow="2"
   inkscape:window-width="1920"
   inkscape:window-height="990"
   id="namedview86"
   showgrid="false"
   inkscape:zoom="1.3590243"
   inkscape:cx="224.64"
   inkscape:cy="297.64001"
   inkscape:window-x="0"
   inkscape:window-y="27"
   inkscape:window-maximized="1"
   inkscape:current-layer="Capa_1" />
<style
   type="text/css"
   id="style70">
	.st0{fill:#BD2A6C;}
	.st1{fill:#FFFFFF;}
	.st2{fill:#EFEDE6;}
</style>
<g
   id="XMLID_8193_"
   transform="matrix(1.1486636,0,0,1.1403988,-170.22804,-71.330845)">
	<path
   id="XMLID_9256_"
   class="st0"
   d="m 239.46,151.26 c 2.56,-2.35 2.78,-7.01 0.1,-9.4 -2.71,-2.41 -6.9,-2.01 -9.32,0.57 -0.11,0.11 -0.19,0.23 -0.26,0.35 -0.01,0.01 -0.02,0.02 -0.03,0.03 -4.4,5.82 4.21,13.32 9.51,8.45 z"
   inkscape:connector-curvature="0"
   style="fill:#bd2a6c" />
	<path
   id="XMLID_9259_"
   class="st0"
   d="m 245.73,128.06 c 6.33,-5.84 7.11,-17.5 0.31,-23.4 -6.87,-5.96 -17.16,-4.63 -23.17,1.76 -0.11,0.11 -0.19,0.23 -0.26,0.35 -0.01,0.01 -0.02,0.02 -0.03,0.03 -10.75,14.22 9.96,33.43 23.15,21.26 z m -12.99,-0.97 c 0.21,0.35 0.49,0.65 0.83,0.91 -2.03,-0.42 -3.89,-1.4 -5.45,-2.75 1.35,0.89 2.9,1.51 4.62,1.84 z m 7.37,-9.94 c -1.03,-0.22 -2.08,-0.5 -3.13,-0.71 0.18,0 0.36,-0.01 0.54,-0.01 1.57,0.02 3.07,0.16 4.49,0.52 -0.63,0.07 -1.26,0.13 -1.9,0.2 z m -9.6,0.58 c -0.08,-0.11 -0.17,-0.23 -0.25,-0.34 0.31,-0.11 0.67,-0.22 1.03,-0.31 -0.27,0.18 -0.52,0.4 -0.78,0.65 z m 14.57,5.32 c 0.03,-0.16 0.04,-0.32 0.04,-0.49 0.48,-0.79 0.9,-1.58 1.24,-2.33 0.02,0 0.03,0 0.05,0 -0.34,0.99 -0.79,1.94 -1.33,2.82 z m -1.12,-15.29 c 2.02,1.94 3.01,4.62 3.15,7.38 -4.74,-2.86 -10.9,-2.95 -16.29,-1.99 -1.16,0.21 -2.35,0.8 -3.31,1.59 -0.96,-0.16 -1.98,0.32 -2.08,1.45 -0.62,-0.26 -1.36,-0.17 -1.91,0.18 -0.19,-2.5 0.43,-5.08 2.09,-7.41 4.72,-4.93 13.06,-6.3 18.35,-1.2 z"
   inkscape:connector-curvature="0"
   style="fill:#bd2a6c" />
	<path
   id="XMLID_9266_"
   class="st0"
   d="m 278.51,150.2 c 6.33,-5.84 7.11,-17.5 0.31,-23.4 -6.87,-5.96 -17.16,-4.63 -23.17,1.76 -0.11,0.11 -0.19,0.23 -0.26,0.35 -0.01,0.01 -0.02,0.02 -0.03,0.03 -10.75,14.22 9.95,33.44 23.15,21.26 z m -1.78,-20.3 c 5.51,5.31 3.48,16.08 -3.22,19.3 -1.73,0.83 -3.46,1.19 -5.12,1.17 2.46,-7.98 0.5,-16.32 -5.1,-22.48 -0.03,-0.03 -0.06,-0.05 -0.09,-0.08 4.46,-1.88 9.77,-1.54 13.53,2.09 z"
   inkscape:connector-curvature="0"
   style="fill:#bd2a6c" />
	<path
   id="XMLID_9269_"
   class="st0"
   d="m 239.01,165.75 c -0.01,0.01 -0.02,0.02 -0.03,0.03 -10.75,14.22 9.96,33.44 23.15,21.26 6.33,-5.84 7.11,-17.5 0.31,-23.4 -6.87,-5.96 -17.16,-4.63 -23.17,1.76 -0.1,0.11 -0.18,0.23 -0.26,0.35 z m 14.36,1.4 c 0.04,0.28 0.13,0.54 0.26,0.77 -1.12,0.58 -2.25,1.12 -3.39,1.62 1.04,-0.8 2.08,-1.6 3.13,-2.39 z m -12.23,4.69 c -0.37,0.28 -0.73,0.56 -1.1,0.84 0.08,-0.52 0.21,-1.04 0.37,-1.56 0.18,0.3 0.43,0.55 0.73,0.72 z m 6.06,2.87 c -1.16,0.47 -2.36,0.85 -3.59,1.12 1.21,-0.33 2.41,-0.71 3.59,-1.12 z m 10.04,-8.83 c 0.05,-0.31 0.11,-0.63 0.16,-0.94 0.01,-0.08 0.02,-0.16 0.02,-0.24 0.31,0.15 0.62,0.31 0.92,0.49 -0.35,0.24 -0.73,0.46 -1.1,0.69 z m -0.09,20.16 c -6.61,3.17 -13.19,-0.53 -15.93,-6.07 8.25,-0.89 15.42,-5.29 19.91,-12.37 0,-0.01 0,-0.01 0.01,-0.02 4.51,5.54 2.37,15.4 -3.99,18.46 z"
   inkscape:connector-curvature="0"
   style="fill:#bd2a6c" />
	<path
   id="XMLID_9277_"
   class="st0"
   d="m 225.3,159.48 c -6.87,-5.96 -17.16,-4.63 -23.17,1.76 -0.11,0.11 -0.19,0.23 -0.26,0.35 -0.01,0.01 -0.02,0.02 -0.03,0.03 -10.75,14.22 9.96,33.44 23.15,21.26 6.33,-5.84 7.11,-17.5 0.31,-23.4 z m 0.61,11.11 c 0.18,-0.11 0.34,-0.24 0.48,-0.39 0.01,0.23 -0.01,0.46 -0.01,0.69 -0.16,-0.1 -0.32,-0.2 -0.47,-0.3 z m -10.58,-11.23 c 0.11,0.4 0.34,0.77 0.75,1.06 1.1,0.79 2.1,1.68 3,2.65 -1.46,-1.15 -2.86,-2.39 -4.19,-3.72 0.14,0 0.29,0.01 0.44,0.01 z m 4.67,22.51 c -11.01,5.29 -21.96,-8.53 -15.14,-18.1 0.84,-0.88 1.79,-1.64 2.82,-2.27 0.03,0.24 0.13,0.5 0.3,0.76 4.22,6.32 10.36,10.79 17.69,12.75 -0.98,2.95 -2.93,5.54 -5.67,6.86 z"
   inkscape:connector-curvature="0"
   style="fill:#bd2a6c" />
	<path
   id="XMLID_9282_"
   class="st0"
   d="m 214.04,148.15 c 6.33,-5.84 7.11,-17.5 0.31,-23.4 -6.87,-5.96 -17.16,-4.63 -23.17,1.76 -0.11,0.11 -0.19,0.23 -0.26,0.35 -0.01,0.01 -0.02,0.02 -0.03,0.03 -10.75,14.22 9.96,33.43 23.15,21.26 z m -0.7,-19.06 c -0.11,-0.04 -0.21,-0.06 -0.32,-0.07 0.04,-0.07 0.07,-0.15 0.11,-0.22 0.07,0.1 0.14,0.2 0.21,0.29 z m -1.18,14.77 c 0.14,0.14 0.29,0.26 0.46,0.36 -0.3,0.38 -0.62,0.74 -0.97,1.08 0.17,-0.49 0.34,-0.96 0.51,-1.44 z m -6.63,4.23 c -0.03,-0.19 -0.04,-0.38 -0.07,-0.56 0.52,0.17 1.08,0.12 1.52,-0.19 -0.01,0.11 -0.02,0.21 -0.02,0.32 -0.01,0.1 0,0.19 0.01,0.27 -0.48,0.13 -0.96,0.21 -1.43,0.28 -0.01,-0.04 0,-0.08 -0.01,-0.12 z m -11.62,-19.04 c 4.12,-4.29 10.96,-5.88 16.16,-2.86 -6.32,5.55 -9.21,13.6 -8.25,21.89 -7.82,-1.66 -13.2,-11.61 -7.91,-19.03 z"
   inkscape:connector-curvature="0"
   style="fill:#bd2a6c" />
	<path
   id="XMLID_9286_"
   class="st0"
   d="m 245.32,136.38 c -0.76,-0.61 -1.64,-0.58 -2.48,-0.18 -0.5,0.24 -0.79,0.74 -0.87,1.27 -0.2,0.46 -0.21,1.01 0.12,1.57 0.88,1.52 3.22,1.46 3.9,-0.22 0.36,-0.88 0.07,-1.85 -0.67,-2.44 z"
   inkscape:connector-curvature="0"
   style="fill:#bd2a6c" />
	<path
   id="XMLID_9288_"
   class="st0"
   d="m 226.15,138.7 c 0.25,0.58 0.72,1.02 1.43,1.11 0.94,0.11 1.74,-0.43 2.04,-1.33 0.17,-0.5 0.13,-1 -0.03,-1.46 -0.01,-0.12 -0.02,-0.25 -0.04,-0.37 -0.1,-1 -0.78,-1.86 -1.86,-1.86 -0.68,0 -1.42,0.47 -1.72,1.11 -0.35,0.33 -0.57,0.79 -0.57,1.32 0,0.58 0.3,1.13 0.75,1.48 z"
   inkscape:connector-curvature="0"
   style="fill:#bd2a6c" />
	<path
   id="XMLID_9289_"
   class="st0"
   d="m 222.45,149.1 c -0.28,0.14 -0.49,0.37 -0.65,0.63 -0.2,0.21 -0.36,0.47 -0.43,0.76 -0.55,2.36 2.42,4.26 4.2,2.44 0.9,-0.92 0.79,-2.43 -0.06,-3.34 -0.81,-0.88 -2,-1.01 -3.06,-0.49 z"
   inkscape:connector-curvature="0"
   style="fill:#bd2a6c" />
	<path
   id="XMLID_9290_"
   class="st0"
   d="m 245.58,154.37 c 0.46,0.17 0.92,0.33 1.39,0.5 0.99,0.36 1.98,-0.41 2.29,-1.3 0.76,-2.18 -1.52,-4.36 -3.66,-3.72 -0.93,0.28 -1.58,1.33 -1.32,2.27 -0.27,1.01 0.36,1.91 1.3,2.25 z"
   inkscape:connector-curvature="0"
   style="fill:#bd2a6c" />
	<path
   id="XMLID_9291_"
   class="st0"
   d="m 236.88,159.23 c 0.37,-1.2 -0.29,-2.43 -1.48,-2.79 -1.14,-0.34 -2.68,0.23 -2.86,1.54 -0.13,0.92 0.2,1.84 1.09,2.21 1.13,0.84 2.81,0.47 3.25,-0.96 z"
   inkscape:connector-curvature="0"
   style="fill:#bd2a6c" />
	<path
   id="XMLID_9366_"
   class="st0"
   d="m 238.59,204.21 c 10.65,0.2 21.36,-2.06 30.07,-8.44 10.23,-7.5 19.1,-18.01 22.87,-30.28 3.71,-12.08 2.3,-27.38 -1.09,-39.41 -3.63,-12.89 -11.92,-22.82 -23.58,-29.3 -25.73,-14.29 -58.52,-8.57 -77.86,13.47 -13.65,16.83 -15.41,39.04 -6.29,58.52 3.01,6.42 6.98,12.1 11.7,16.93 -5.7,0 -11.4,0 -17.1,0 -0.19,0 -0.36,0.03 -0.51,0.07 -0.95,-0.03 -1.91,0.56 -1.86,1.79 0.16,4.39 0.33,8.78 0.49,13.17 -0.84,1.06 -0.38,3.08 1.39,3.08 20.53,0.01 41.06,0.43 61.59,0.44 0.06,-0.02 0.12,-0.04 0.18,-0.04 z m -54.2,-4.11 c -1.61,-1.29 -3.23,-2.59 -4.84,-3.88 -0.18,-0.15 -0.38,-0.26 -0.59,-0.35 0,-0.02 0,-0.04 0,-0.05 0.15,0.01 0.3,0.01 0.45,-0.01 1.79,1.36 3.58,2.72 5.37,4.08 0.13,0.1 0.25,0.17 0.38,0.22 -0.26,-0.01 -0.51,-0.01 -0.77,-0.01 z m 25.69,-2.62 c -0.1,-0.11 -0.2,-0.21 -0.33,-0.29 -0.24,-0.17 -0.47,-0.34 -0.71,-0.51 0.54,0.29 1.07,0.57 1.62,0.84 -0.19,-0.01 -0.38,-0.03 -0.58,-0.04 z m -18.93,-7.23 c -0.24,-0.19 -0.47,-0.4 -0.7,-0.59 -0.1,-0.09 -0.19,-0.18 -0.29,-0.26 0.49,0 0.99,0 1.48,0 -0.23,0.24 -0.4,0.54 -0.49,0.85 z m -5.43,-0.14 c -0.27,-0.24 -0.53,-0.47 -0.8,-0.71 0.26,0 0.53,0 0.79,0 -0.04,0.24 -0.04,0.48 0.01,0.71 z m 1.32,9.41 c 0.45,0.2 0.91,0.39 1.38,0.57 0.05,0.02 0.1,0.03 0.15,0.04 -0.75,0 -1.5,-0.01 -2.24,-0.01 0.27,-0.13 0.52,-0.34 0.71,-0.6 z m 2.89,0.31 c 1.04,0.07 2.07,0.14 3.11,0.21 0.06,0.04 0.13,0.07 0.19,0.11 -1.31,-0.01 -2.63,-0.01 -3.94,-0.02 0.22,-0.06 0.44,-0.16 0.64,-0.3 z m 24.9,-0.42 c 0.83,0.34 1.66,0.67 2.51,0.97 -0.87,-0.01 -1.74,-0.02 -2.6,-0.02 0.1,-0.3 0.13,-0.63 0.09,-0.95 z m -25.42,-26.1 c -11.68,-18.85 -12.02,-42.87 2.22,-60.44 15.67,-17.85 40.64,-24.86 63.3,-17.27 11.75,3.93 22.87,11.44 28.59,22.7 5.56,10.96 6.67,24.54 6.07,36.66 -1.24,25.07 -25.06,45.33 -49.32,45.53 -20.79,0.17 -39.82,-9.37 -50.86,-27.18 z m 9.59,16.6 c -0.05,0.06 -0.1,0.11 -0.14,0.17 -0.25,-0.23 -0.51,-0.46 -0.77,-0.68 0.1,0 0.2,0 0.3,0 0.2,0.17 0.41,0.34 0.61,0.51 z"
   inkscape:connector-curvature="0"
   style="fill:#bd2a6c" />
</g>
</svg>